<svg xmlns="http://www.w3.org/2000/svg" viewBox="0 0 100 100">
  <defs>
    <linearGradient id="grad" x1="0%" y1="0%" x2="100%" y2="100%">
      <stop offset="0%" style="stop-color:#e67e22;stop-opacity:1" />
      <stop offset="100%" style="stop-color:#d35400;stop-opacity:1" />
    </linearGradient>
  </defs>
  <rect width="100" height="100" rx="15" fill="#1a1a1a"/>
  <g transform="translate(20, 30)">
    <!-- G letter stylized as industrial hook/grab -->
    <path d="M 5 10 L 5 40 Q 5 50 15 50 L 35 50 L 35 45 L 15 45 Q 10 45 10 40 L 10 20 Q 10 15 15 15 L 35 15 Q 40 15 40 20 L 40 30 L 25 30 L 25 35 L 45 35 L 45 20 Q 45 10 35 10 Z" fill="url(#grad)" stroke="#fff" stroke-width="1.5"/>
    <!-- Industrial bolt detail -->
    <circle cx="8" cy="13" r="2" fill="#fff" opacity="0.8"/>
    <circle cx="8" cy="47" r="2" fill="#fff" opacity="0.8"/>
    <circle cx="42" cy="13" r="2" fill="#fff" opacity="0.8"/>
  </g>
</svg>
